<svg width="20" height="20" viewBox="0 0 20 20" fill="none" xmlns="http://www.w3.org/2000/svg">
<path fill-rule="evenodd" clip-rule="evenodd" d="M2.5 4.98584C2.5 4.07334 3.24583 3.33334 4.16667 3.33334H15.8333C16.7542 3.33334 17.5 4.07334 17.5 4.98584V12.4217C17.4992 12.6397 17.4555 12.8554 17.3713 13.0564C17.2871 13.2575 17.1641 13.44 17.0093 13.5935C16.8545 13.747 16.6709 13.8684 16.4692 13.9509C16.2674 14.0334 16.0513 14.0753 15.8333 14.0742H10.3333L7.94417 16.3242C7.14833 17.0733 5.83333 16.5142 5.83333 15.4242V14.0742H4.16667C3.24583 14.0742 2.5 13.3342 2.5 12.4217V4.98584ZM7.255 8.16C7.17747 8.08274 7.08547 8.02151 6.98427 7.9798C6.88307 7.93809 6.77465 7.91672 6.66519 7.91692C6.55574 7.91711 6.44739 7.93886 6.34634 7.98093C6.24529 8.02299 6.15351 8.08455 6.07625 8.16209C5.99899 8.23962 5.93776 8.33161 5.89605 8.43281C5.85434 8.53401 5.83297 8.64244 5.83316 8.75189C5.83336 8.86135 5.85511 8.9697 5.89717 9.07075C5.93924 9.1718 6.0008 9.26357 6.07833 9.34084C6.15587 9.4181 6.24786 9.47933 6.34906 9.52104C6.45026 9.56275 6.55868 9.58412 6.66814 9.58392C6.7776 9.58373 6.88594 9.56198 6.98699 9.51991C7.08805 9.47784 7.17982 9.41629 7.25708 9.33875C7.33434 9.26122 7.39558 9.16922 7.43729 9.06803C7.47899 8.96683 7.50036 8.8584 7.50017 8.74895C7.49997 8.63949 7.47822 8.53114 7.43616 8.43009C7.39409 8.32904 7.33253 8.23726 7.255 8.16ZM9.40917 8.16167C9.52545 8.04485 9.67377 7.96515 9.83536 7.93263C9.99695 7.90011 10.1646 7.91624 10.317 7.97899C10.4694 8.04173 10.5998 8.14826 10.6916 8.28512C10.7835 8.42197 10.8327 8.58299 10.8331 8.74782C10.8334 8.91265 10.7849 9.07387 10.6936 9.21111C10.6023 9.34836 10.4724 9.45544 10.3202 9.51883C10.1681 9.58222 10.0006 9.59906 9.83883 9.56723C9.6771 9.5354 9.52845 9.45632 9.41167 9.34C9.25511 9.18406 9.1669 8.97232 9.16643 8.75135C9.16596 8.53038 9.25327 8.31827 9.40917 8.16167ZM13.9217 8.16C13.7651 8.00397 13.5529 7.91653 13.3319 7.91692C13.1108 7.91731 12.899 8.0055 12.7429 8.16209C12.5869 8.31867 12.4994 8.53083 12.4998 8.75189C12.5002 8.97295 12.5884 9.1848 12.745 9.34084C12.8225 9.4181 12.9145 9.47933 13.0157 9.52104C13.1169 9.56275 13.2253 9.58412 13.3348 9.58392C13.4443 9.58373 13.5526 9.56198 13.6537 9.51991C13.7547 9.47784 13.8465 9.41629 13.9237 9.33875C14.001 9.26122 14.0622 9.16922 14.104 9.06803C14.1457 8.96683 14.167 8.8584 14.1668 8.74895C14.1666 8.63949 14.1449 8.53114 14.1028 8.43009C14.0608 8.32904 13.9992 8.23726 13.9217 8.16Z" fill="#575FFF"/>
</svg>
